<svg id="Layer_1" data-name="Layer 1" xmlns="http://www.w3.org/2000/svg" viewBox="0 0 340.85 340.85"><defs><style>.cls-1,.cls-4,.cls-5{fill:#350460;}.cls-2,.cls-3{fill:#e0410a;}.cls-2,.cls-4{opacity:0.43;}.cls-5{opacity:0.65;}.cls-6{fill:#1bc97e;}.cls-7{fill:none;stroke:#4b0b60;stroke-miterlimit:10;stroke-width:2px;}</style></defs><title>geoff</title><path class="cls-1" d="M352.79,116.16l-97.71,51c-9,4.69-5.66,18.3,4.48,18.3H455c10.14,0,13.48-13.61,4.48-18.3l-97.71-51A9.7,9.7,0,0,0,352.79,116.16Z" transform="translate(-188.38 -66.31)"/><rect class="cls-1" x="60.25" y="232.3" width="217.26" height="36.16" rx="17.84" ry="17.84"/><path class="cls-2" d="M298.59,207.25v69.52c0,6.2-3.94,11.24-8.8,11.24H283c-4.86,0-8.8-5-8.8-11.24V207.25c0-6.2,3.94-11.24,8.8-11.24h6.83C294.65,196,298.59,201,298.59,207.25Z" transform="translate(-188.38 -66.31)"/><path class="cls-3" d="M298.59,263.85v12.91c0,6.2-3.94,11.24-8.8,11.24H283c-4.86,0-8.8-5-8.8-11.24V263.85c0-6.2,3.94-11.24,8.8-11.24h6.83C294.65,252.62,298.59,257.65,298.59,263.85Z" transform="translate(-188.38 -66.31)"/><path class="cls-4" d="M372.06,208.21v67.6c0,6.73-4.28,12.19-9.55,12.19h-5.33c-5.27,0-9.55-5.47-9.55-12.19v-67.6c0-6.73,4.28-12.19,9.55-12.19h5.33C367.78,196,372.06,201.48,372.06,208.21Z" transform="translate(-188.38 -66.31)"/><path class="cls-5" d="M372.06,239.41v36.4c0,6.73-4.28,12.19-9.55,12.19h-5.33c-5.27,0-9.55-5.47-9.55-12.19v-36.4c0-6.74,4.28-12.19,9.55-12.19h5.33C367.78,227.21,372.06,232.67,372.06,239.41Z" transform="translate(-188.38 -66.31)"/><rect class="cls-6" x="232.73" y="129.71" width="24.43" height="91.99" rx="12.21" ry="12.21"/><circle class="cls-7" cx="170.42" cy="170.42" r="169.42"/></svg>